<?xml version="1.0" encoding="UTF-8"?>
<svg id="Capa_2" data-name="Capa 2" xmlns="http://www.w3.org/2000/svg" viewBox="0 0 303.86 467.39">
  <defs>
    <style>
      .cls-1, .cls-2, .cls-3, .cls-4 {
        stroke-width: 0px;
      }

      .cls-5 {
        opacity: .08;
      }

      .cls-2 {
        fill: #b7b7b7;
      }

      .cls-3 {
        fill: none;
      }

      .cls-4 {
        fill: #e08d26;
      }
    </style>
  </defs>
  <g id="Capa_1-2" data-name="Capa 1">
    <g>
      <rect class="cls-3" width="300.24" height="467.39"/>
      <g class="cls-5">
        <g>
          <g>
            <rect class="cls-4" x="91.47" y="132.78" width="10.06" height="56.4"/>
            <rect class="cls-4" x="60.72" y="150.59" width="10.06" height="56.4"/>
            <rect class="cls-2" x="71.06" y="141.94" width="10.06" height="56.4"/>
            <rect class="cls-1" x="81.13" y="120.42" width="10.06" height="56.4"/>
            <rect class="cls-2" x="101.53" y="139.96" width="10.06" height="56.4"/>
            <rect class="cls-1" x="111.59" y="118.44" width="10.06" height="56.4"/>
          </g>
          <g>
            <rect class="cls-4" x="152.11" y="120.17" width="10.06" height="56.4"/>
            <rect class="cls-4" x="121.37" y="102.36" width="10.06" height="56.4"/>
            <rect class="cls-2" x="131.71" y="111.02" width="10.06" height="56.4"/>
            <rect class="cls-1" x="141.77" y="132.54" width="10.06" height="56.4"/>
            <rect class="cls-2" x="162.17" y="113" width="10.06" height="56.4"/>
            <rect class="cls-1" x="172.23" y="134.52" width="10.06" height="56.4"/>
          </g>
          <g>
            <rect class="cls-4" x="31.14" y="137.55" width="10.06" height="56.4"/>
            <rect class="cls-4" x=".4" y="155.36" width="10.06" height="56.4"/>
            <rect class="cls-2" x="10.74" y="146.71" width="10.06" height="56.4"/>
            <rect class="cls-1" x="20.8" y="125.19" width="10.06" height="56.4"/>
            <rect class="cls-2" x="41.2" y="144.73" width="10.06" height="56.4"/>
            <rect class="cls-1" x="51.26" y="123.21" width="10.06" height="56.4"/>
          </g>
        </g>
        <g>
          <g>
            <rect class="cls-4" x="213.03" y="95.19" width="10.06" height="56.4"/>
            <rect class="cls-4" x="182.29" y="113" width="10.06" height="56.4"/>
            <rect class="cls-2" x="192.63" y="104.34" width="10.06" height="56.4"/>
            <rect class="cls-1" x="202.69" y="82.82" width="10.06" height="56.4"/>
            <rect class="cls-2" x="223.1" y="102.36" width="10.06" height="56.4"/>
            <rect class="cls-1" x="233.16" y="80.84" width="10.06" height="56.4"/>
          </g>
          <g>
            <rect class="cls-4" x="273.68" y="82.57" width="10.06" height="56.4"/>
            <rect class="cls-4" x="242.94" y="64.76" width="10.06" height="56.4"/>
            <rect class="cls-2" x="253.28" y="73.42" width="10.06" height="56.4"/>
            <rect class="cls-1" x="263.34" y="94.94" width="10.06" height="56.4"/>
            <rect class="cls-2" x="283.74" y="75.4" width="10.06" height="56.4"/>
            <rect class="cls-1" x="293.8" y="96.92" width="10.06" height="56.4"/>
          </g>
        </g>
      </g>
      <g class="cls-5">
        <g>
          <g>
            <rect class="cls-4" x="91.47" y="340.78" width="10.06" height="56.4"/>
            <rect class="cls-4" x="60.72" y="358.59" width="10.06" height="56.4"/>
            <rect class="cls-2" x="71.06" y="349.94" width="10.06" height="56.4"/>
            <rect class="cls-1" x="81.13" y="328.42" width="10.06" height="56.4"/>
            <rect class="cls-2" x="101.53" y="347.96" width="10.06" height="56.4"/>
            <rect class="cls-1" x="111.59" y="326.44" width="10.06" height="56.4"/>
          </g>
          <g>
            <rect class="cls-4" x="152.11" y="328.17" width="10.06" height="56.4"/>
            <rect class="cls-4" x="121.37" y="310.36" width="10.06" height="56.4"/>
            <rect class="cls-2" x="131.71" y="319.02" width="10.06" height="56.4"/>
            <rect class="cls-1" x="141.77" y="340.54" width="10.06" height="56.4"/>
            <rect class="cls-2" x="162.17" y="321" width="10.06" height="56.4"/>
            <rect class="cls-1" x="172.23" y="342.52" width="10.06" height="56.4"/>
          </g>
          <g>
            <rect class="cls-4" x="31.14" y="345.55" width="10.06" height="56.4"/>
            <rect class="cls-4" x=".4" y="363.36" width="10.06" height="56.4"/>
            <rect class="cls-2" x="10.74" y="354.71" width="10.06" height="56.4"/>
            <rect class="cls-1" x="20.8" y="333.19" width="10.06" height="56.4"/>
            <rect class="cls-2" x="41.2" y="352.73" width="10.06" height="56.4"/>
            <rect class="cls-1" x="51.26" y="331.21" width="10.06" height="56.4"/>
          </g>
        </g>
        <g>
          <g>
            <rect class="cls-4" x="213.03" y="303.19" width="10.06" height="56.4"/>
            <rect class="cls-4" x="182.29" y="321" width="10.06" height="56.4"/>
            <rect class="cls-2" x="192.63" y="312.34" width="10.06" height="56.4"/>
            <rect class="cls-1" x="202.69" y="290.82" width="10.06" height="56.4"/>
            <rect class="cls-2" x="223.1" y="310.36" width="10.06" height="56.4"/>
            <rect class="cls-1" x="233.16" y="288.84" width="10.06" height="56.4"/>
          </g>
          <g>
            <rect class="cls-4" x="273.68" y="290.57" width="10.06" height="56.4"/>
            <rect class="cls-4" x="242.94" y="272.76" width="10.06" height="56.4"/>
            <rect class="cls-2" x="253.28" y="281.42" width="10.06" height="56.4"/>
            <rect class="cls-1" x="263.34" y="302.94" width="10.06" height="56.4"/>
            <rect class="cls-2" x="283.74" y="283.4" width="10.06" height="56.4"/>
            <rect class="cls-1" x="293.8" y="304.92" width="10.06" height="56.4"/>
          </g>
        </g>
      </g>
    </g>
  </g>
</svg>