<?xml version="1.0" encoding="UTF-8"?>
<svg id="Capa_2" data-name="Capa 2" xmlns="http://www.w3.org/2000/svg" viewBox="0 0 169.79 74.1">
  <defs>
    <style>
      .cls-1 {
        fill: none;
      }

      .cls-1, .cls-2, .cls-3 {
        stroke-width: 0px;
      }

      .cls-2 {
        fill: #fff;
      }

      .cls-3 {
        fill: #e08d26;
      }
    </style>
  </defs>
  <g id="Capa_1-2" data-name="Capa 1">
    <g>
      <g>
        <polygon class="cls-3" points="54.12 11.37 54.12 11.37 54.13 11.3 54.11 11.37 54.12 11.37"/>
        <g>
          <path class="cls-1" d="m16.83,24.7c-.09.04-.19.08-.28.12h0c-.21.3-.42.59-.63.89-.03.12-.06.24-.09.36-.98,3.38-1.95,6.77-2.94,10.15-.25.86-.5,1.69.36,2.34,1.02.77,2.14,1.21,3.43.78.41-.14.61-.47.73-.88,1.12-3.79,2.24-7.58,3.38-11.37.19-.64-.1-1.07-.53-1.46-.98-.88-2.16-1.09-3.43-.94Z"/>
          <path class="cls-2" d="m68.41,56.45c.1-1.62-.18-3.2-.4-4.79,0-.06-.01-.12-.02-.18.05-.39-.07-.75-.16-1.11,0-.06-.01-.12-.02-.18-.73-5.26-2.44-10.22-4.68-15.01-.54-1.16-1.08-2.33-1.8-3.4-.08-.31-.21-.59-.46-.8.01-.06,0-.1-.06-.12-.16-.52-.46-.95-.82-1.35h0c-1.31-2.32-2.82-4.48-4.62-6.44-1.91-2.6-4.22-4.83-6.6-6.97-1.7-1.53-3.45-3.02-5.4-4.24-2.31-1.76-4.78-3.25-7.35-4.59-5.9-3.06-12.09-5.24-18.65-6.34C11.89.03,6.39-.29.86.31c-.17.02-.37-.04-.52.15,0,.33.31.42.5.58,3.25,2.67,6.61,5.2,9.66,8.1.42.4.82.83,1.23,1.24.7.7.96,1.47.75,2.5-.15.73-.33,1.51-.09,2.28-.34-.03-.48.15-.54.47-.22,1.15-.45,2.31-.68,3.46-.02.12-.04.24-.06.36-.21.35-.29.72-.27,1.12-.02.12-.05.24-.07.36-.23.73-.47,1.45-.53,2.22-.02.12-.04.24-.06.35-.13.3-.29.6-.24.95-.02.12-.04.24-.06.35h0c-1.11,3.67-1.84,7.43-2.79,11.14-.97,3.77-1.87,7.56-2.81,11.34-1.4,5.64-2.8,11.29-4.23,16.92-.13.51-.08.84.33,1.2,2.24,1.96,4.46,3.94,6.67,5.93.35.31.7.43,1.16.42,3.59-.12,7.17-.22,10.76-.31.45-.01.73-.17.97-.55,3.82-5.89,7.66-11.76,11.49-17.64,1.92-2.94,3.86-5.86,5.76-8.82.69-1.08,1.33-2.18,1.64-3.44l4.65,3.85c-1.26,2.66-2.61,5.28-4.01,7.87-3.93,7.28-8.11,14.42-12.56,21.4h39.86c.07-.33.16-.66.23-1,.04-.2.02-.42.03-.63.14-.42.24-.84.23-1.28.15-.18.35-.35.05-.56.3-.77.45-1.57.49-2.39.16-.66.31-1.33.2-2.02.02-.12.03-.24.05-.35.17-.3.16-.62.1-.94.02-.24.04-.48.06-.72.17-.67.21-1.35.14-2.04.01-.3.03-.61.04-.91.16-1.6.16-3.19,0-4.79ZM20.79,27.09c-1.14,3.79-2.26,7.58-3.38,11.37-.12.41-.32.74-.73.88-1.3.43-2.41-.02-3.43-.78-.86-.65-.61-1.49-.36-2.34,1-3.38,1.96-6.76,2.94-10.15.03-.12.06-.24.09-.36.21-.3.42-.59.63-.89h0c.09-.04.19-.08.28-.12,1.27-.16,2.45.05,3.43.94.43.38.72.82.53,1.46Z"/>
        </g>
        <g>
          <path class="cls-2" d="m76.81,53.79c-.61-7.38-2.22-14.54-5.22-21.33-2.99-6.77-7.1-12.56-12.69-17.01,1.36-.56,3.88-1.48,9.18-1.48l-18-3.79,1.29,1.06c.14.14.29.27.45.37,1.83,1.98,3.74,3.89,5.47,5.95,2.99,3.57,5.77,7.29,7.93,11.44,3.17,6.06,5.27,12.46,6.36,19.21,1.4,8.68,1.33,17.31-.01,25.9h4.33c.19-1.15.29-2.31.26-3.49,0-.36.05-.68.51-.71.1-.24.13-.48.06-.74-.63-.48-.57-.91.11-1.28,0-.13.02-.27.03-.4.4-4.57.31-9.13-.06-13.7ZM52.68,11.37s0,0,0,0c0,0,0,0,0,0,0,0,.02-.07.02-.07l-.02.07Z"/>
          <path class="cls-2" d="m63.52,19.95c.99-.15,2.8-.36,6.31.5l-11.3-5.41.69.91c.07.12.15.22.24.32.89,1.6,1.85,3.18,2.66,4.82"/>
        </g>
      </g>
      <g>
        <polygon class="cls-3" points="115.67 11.37 115.67 11.37 115.66 11.3 115.68 11.37 115.67 11.37"/>
        <path class="cls-2" d="m169.73,64.19c-1.42-5.64-2.82-11.28-4.23-16.92-.94-3.78-1.84-7.57-2.81-11.34-.95-3.71-1.68-7.47-2.79-11.14h0c-.02-.12-.04-.24-.06-.35.05-.35-.1-.64-.24-.95-.02-.12-.04-.24-.06-.35-.06-.77-.3-1.49-.53-2.22-.02-.12-.05-.24-.07-.36.02-.4-.06-.78-.27-1.12-.02-.12-.04-.24-.06-.36-.23-1.15-.46-2.3-.68-3.46-.06-.32-.19-.5-.54-.47.25-.77.06-1.55-.09-2.28-.21-1.03.05-1.8.75-2.5.41-.41.81-.84,1.23-1.24,3.05-2.9,6.41-5.43,9.66-8.1.19-.16.5-.25.5-.58-.15-.19-.35-.13-.52-.15-5.53-.6-11.03-.28-16.51.64-6.56,1.1-12.76,3.28-18.65,6.34-2.57,1.34-5.04,2.83-7.35,4.59-1.95,1.22-3.7,2.7-5.4,4.24-2.38,2.15-4.7,4.37-6.6,6.97-1.79,1.96-3.31,4.13-4.62,6.44h0c-.36.4-.65.84-.82,1.35-.05.03-.07.07-.06.12-.25.21-.38.49-.46.8-.72,1.07-1.26,2.24-1.8,3.4-2.24,4.79-3.95,9.75-4.68,15.01,0,.06-.01.12-.02.18-.09.36-.21.72-.16,1.11,0,.06-.01.12-.02.18-.22,1.59-.51,3.17-.4,4.79-.16,1.6-.15,3.19,0,4.79.01.3.03.61.04.91-.08.69-.03,1.37.14,2.04.02.24.04.48.06.72-.06.32-.06.64.1.94.02.12.03.24.05.35-.12.69.03,1.36.2,2.02.04.82.19,1.62.49,2.39-.3.21-.11.39.05.56-.01.44.1.87.23,1.28,0,.21-.02.43.03.63.07.33.16.67.23,1h39.86c-4.44-6.98-8.63-14.12-12.56-21.4-1.4-2.59-2.75-5.21-4.01-7.87l4.65-3.85c.31,1.25.95,2.36,1.64,3.44,1.9,2.95,3.84,5.88,5.76,8.82,3.84,5.88,7.67,11.76,11.49,17.64.24.37.52.54.97.55,3.59.09,7.17.19,10.76.31.46.01.81-.11,1.16-.42,2.21-1.99,4.43-3.97,6.67-5.93.41-.36.46-.69.33-1.2Zm-13.18-25.63c-1.02.77-2.14,1.21-3.43.78-.41-.14-.61-.47-.73-.88-1.12-3.79-2.24-7.58-3.38-11.37-.19-.64.1-1.07.53-1.46.98-.88,2.16-1.09,3.43-.94.09.04.19.08.28.12h0c.21.3.42.59.63.89.03.12.06.24.09.36.98,3.38,1.95,6.77,2.94,10.15.25.86.5,1.69-.36,2.34Z"/>
        <g>
          <path class="cls-2" d="m92.92,67.48c0,.13.02.27.03.4.68.37.74.8.11,1.28-.07.25-.04.5.06.74.46.03.52.34.51.71-.03,1.18.07,2.34.26,3.49h4.33c-1.34-8.59-1.41-17.22-.01-25.9,1.09-6.75,3.19-13.15,6.36-19.21,2.17-4.15,4.94-7.87,7.93-11.44,1.73-2.06,3.64-3.97,5.47-5.95.16-.11.3-.23.45-.37l1.29-1.06-18,3.79c5.3,0,7.82.93,9.18,1.48-5.59,4.46-9.71,10.24-12.69,17.01-2.99,6.79-4.6,13.95-5.22,21.33-.38,4.56-.47,9.13-.06,13.7Zm24.17-56.18s.02.07.02.07c0,0,0,0,0,0,0,0,0,0,0,0l-.02-.07Z"/>
          <path class="cls-2" d="m107.68,21.09c.81-1.64,1.77-3.21,2.66-4.82.09-.1.16-.2.24-.32l.69-.91-11.3,5.41c3.51-.85,5.32-.65,6.31-.5"/>
        </g>
      </g>
    </g>
  </g>
</svg>