<?xml version="1.0" encoding="UTF-8"?>
<svg id="Capa_2" data-name="Capa 2" xmlns="http://www.w3.org/2000/svg" viewBox="0 0 59.7 26.06">
  <defs>
    <style>
      .cls-1 {
        fill: none;
      }

      .cls-1, .cls-2, .cls-3 {
        stroke-width: 0px;
      }

      .cls-2 {
        fill: #fff;
      }

      .cls-3 {
        fill: #e08d26;
      }
    </style>
  </defs>
  <g id="Capa_1-2" data-name="Capa 1">
    <g>
      <g>
        <polygon class="cls-3" points="19.03 4 19.03 4 19.03 3.97 19.03 4 19.03 4"/>
        <g>
          <path class="cls-1" d="m5.92,8.68s-.07.03-.1.04h0c-.07.1-.15.21-.22.31-.01.04-.02.08-.03.13-.34,1.19-.68,2.38-1.04,3.57-.09.3-.18.6.13.82.36.27.75.43,1.21.28.14-.05.22-.17.26-.31.39-1.33.79-2.67,1.19-4,.07-.22-.04-.38-.18-.51-.35-.31-.76-.38-1.21-.33Z"/>
          <path class="cls-2" d="m24.05,19.85c.04-.57-.06-1.12-.14-1.68,0-.02,0-.04,0-.06.02-.14-.02-.26-.06-.39,0-.02,0-.04,0-.06-.26-1.85-.86-3.59-1.64-5.28-.19-.41-.38-.82-.63-1.2-.03-.11-.07-.21-.16-.28,0-.02,0-.03-.02-.04-.06-.18-.16-.33-.29-.47h0c-.46-.81-.99-1.58-1.62-2.27-.67-.92-1.48-1.7-2.32-2.45-.6-.54-1.21-1.06-1.9-1.49-.81-.62-1.68-1.14-2.59-1.61C10.59,1.48,8.41.72,6.11.33,4.18,0,2.25-.1.3.11c-.06,0-.13-.01-.18.05,0,.12.11.15.18.2,1.14.94,2.32,1.83,3.4,2.85.15.14.29.29.43.44.25.25.34.52.26.88-.05.26-.12.53-.03.8-.12-.01-.17.05-.19.16-.08.41-.16.81-.24,1.22,0,.04-.01.08-.02.13-.07.12-.1.25-.09.39,0,.04-.02.08-.03.12-.08.26-.17.51-.19.78,0,.04-.01.08-.02.12-.05.11-.1.21-.08.33,0,.04-.01.08-.02.12h0c-.39,1.29-.65,2.61-.98,3.92-.34,1.33-.66,2.66-.99,3.99-.49,1.98-.99,3.97-1.49,5.95-.05.18-.03.3.12.42.79.69,1.57,1.39,2.35,2.08.12.11.25.15.41.15,1.26-.04,2.52-.08,3.78-.11.16,0,.26-.06.34-.19,1.34-2.07,2.69-4.14,4.04-6.2.67-1.03,1.36-2.06,2.02-3.1.24-.38.47-.77.58-1.21l1.64,1.35c-.44.94-.92,1.85-1.41,2.77-1.38,2.56-2.85,5.07-4.41,7.53h14.02c.03-.12.06-.23.08-.35.02-.07,0-.15,0-.22.05-.15.09-.3.08-.45.05-.06.12-.12.02-.2.1-.27.16-.55.17-.84.06-.23.11-.47.07-.71,0-.04.01-.08.02-.12.06-.11.06-.22.04-.33,0-.08.01-.17.02-.25.06-.24.08-.47.05-.72,0-.11,0-.21.01-.32.06-.56.06-1.12,0-1.68ZM7.31,9.52c-.4,1.33-.79,2.66-1.19,4-.04.14-.11.26-.26.31-.46.15-.85,0-1.21-.28-.3-.23-.21-.52-.13-.82.35-1.19.69-2.38,1.04-3.57.01-.04.02-.08.03-.13.07-.1.15-.21.22-.31h0s.07-.03.1-.04c.45-.06.86.02,1.21.33.15.13.25.29.18.51Z"/>
        </g>
        <g>
          <path class="cls-2" d="m27.01,18.91c-.22-2.6-.78-5.11-1.83-7.5-1.05-2.38-2.5-4.41-4.46-5.98.48-.2,1.36-.52,3.23-.52l-6.33-1.33.45.37c.05.05.1.09.16.13.64.7,1.32,1.37,1.92,2.09,1.05,1.25,2.03,2.56,2.79,4.02,1.11,2.13,1.85,4.38,2.24,6.75.49,3.05.47,6.09,0,9.11h1.52c.07-.4.1-.81.09-1.23,0-.13.02-.24.18-.25.04-.08.05-.17.02-.26-.22-.17-.2-.32.04-.45,0-.05,0-.09,0-.14.14-1.61.11-3.21-.02-4.82ZM18.52,4s0,0,0,0c0,0,0,0,0,0,0,0,0-.02,0-.02v.02Z"/>
          <path class="cls-2" d="m22.33,7.02c.35-.05.99-.13,2.22.17l-3.97-1.9.24.32s.05.08.08.11c.31.56.65,1.12.94,1.69"/>
        </g>
      </g>
      <g>
        <polygon class="cls-3" points="40.67 4 40.67 4 40.67 3.97 40.67 4 40.67 4"/>
        <path class="cls-2" d="m59.68,22.57c-.5-1.98-.99-3.97-1.49-5.95-.33-1.33-.65-2.66-.99-3.99-.33-1.3-.59-2.63-.98-3.92h0s-.01-.08-.02-.12c.02-.12-.04-.23-.08-.33,0-.04-.01-.08-.02-.12-.02-.27-.11-.52-.19-.78,0-.04-.02-.08-.03-.12,0-.14-.02-.27-.09-.39,0-.04-.01-.08-.02-.13-.08-.41-.16-.81-.24-1.22-.02-.11-.07-.17-.19-.16.09-.27.02-.55-.03-.8-.07-.36.02-.63.26-.88.15-.14.28-.3.43-.44,1.07-1.02,2.25-1.91,3.4-2.85.07-.06.18-.09.18-.2-.05-.07-.12-.05-.18-.05-1.95-.21-3.88-.1-5.8.22-2.31.39-4.49,1.15-6.56,2.23-.91.47-1.77.99-2.59,1.61-.69.43-1.3.95-1.9,1.49-.84.76-1.65,1.54-2.32,2.45-.63.69-1.16,1.45-1.62,2.26h0c-.13.14-.23.29-.29.48-.02,0-.03.02-.02.04-.09.07-.13.17-.16.28-.25.38-.44.79-.63,1.2-.79,1.68-1.39,3.43-1.64,5.28,0,.02,0,.04,0,.06-.03.13-.08.25-.06.39,0,.02,0,.04,0,.06-.08.56-.18,1.12-.14,1.68-.06.56-.05,1.12,0,1.68,0,.11,0,.21.01.32-.03.24-.01.48.05.72,0,.08.01.17.02.25-.02.11-.02.23.04.33,0,.04.01.08.02.12-.04.24.01.48.07.71.01.29.07.57.17.84-.11.08-.04.14.02.2,0,.16.03.3.08.45,0,.07,0,.15,0,.22.03.12.06.23.08.35h14.02c-1.56-2.45-3.03-4.96-4.41-7.53-.49-.91-.97-1.83-1.41-2.77l1.64-1.35c.11.44.33.83.58,1.21.67,1.04,1.35,2.07,2.02,3.1,1.35,2.07,2.7,4.13,4.04,6.2.09.13.18.19.34.19,1.26.03,2.52.07,3.78.11.16,0,.29-.04.41-.15.78-.7,1.56-1.4,2.35-2.08.14-.13.16-.24.12-.42Zm-4.63-9.01c-.36.27-.75.43-1.21.28-.14-.05-.22-.17-.26-.31-.39-1.33-.79-2.67-1.19-4-.07-.22.04-.38.18-.51.35-.31.76-.38,1.21-.33.03.01.07.03.1.04h0c.07.1.15.21.22.31.01.04.02.08.03.13.34,1.19.68,2.38,1.04,3.57.09.3.18.6-.13.82Z"/>
        <g>
          <path class="cls-2" d="m32.67,23.73s0,.09,0,.14c.24.13.26.28.04.45-.03.09-.01.18.02.26.16.01.18.12.18.25,0,.41.03.82.09,1.23h1.52c-.47-3.02-.5-6.06,0-9.11.38-2.37,1.12-4.62,2.24-6.75.76-1.46,1.74-2.77,2.79-4.02.61-.73,1.28-1.4,1.92-2.09.06-.04.11-.08.16-.13l.45-.37-6.33,1.33c1.86,0,2.75.33,3.23.52-1.97,1.57-3.41,3.6-4.46,5.98-1.05,2.39-1.62,4.9-1.83,7.5-.13,1.6-.16,3.21-.02,4.82ZM41.17,3.97s0,.02,0,.02c0,0,0,0,0,0,0,0,0,0,0,0v-.02Z"/>
          <path class="cls-2" d="m37.86,7.42c.29-.58.62-1.13.94-1.69.03-.03.06-.07.08-.11l.24-.32-3.97,1.9c1.23-.3,1.87-.23,2.22-.17"/>
        </g>
      </g>
    </g>
  </g>
</svg>